<svg xmlns="http://www.w3.org/2000/svg" width="263" height="166" viewBox="0 0 263 166"><defs><style>.a{fill:#f1f8fb;}.b{fill:#303030;}</style></defs><g transform="translate(-503 -604)"><rect class="a" width="263" height="166" rx="6" transform="translate(503 604)"/><g transform="translate(605 602.799)"><path class="b" d="M54.649,61.2H3.705A3.705,3.705,0,0,0,0,64.906v37.977a3.705,3.705,0,0,0,3.705,3.7H54.649a3.705,3.705,0,0,0,3.705-3.7V64.906A3.705,3.705,0,0,0,54.649,61.2Zm0,3.7V91.852l-7.3-6.638a2.778,2.778,0,0,0-3.834.092l-7.39,7.389-14.571-17.4a2.779,2.779,0,0,0-4.237-.029L3.705,91.079V64.906ZM38.9,74.632A5.094,5.094,0,1,1,44,79.726,5.094,5.094,0,0,1,38.9,74.632Z" transform="translate(0 0)"/></g></g></svg>