<svg xmlns="http://www.w3.org/2000/svg" width="106" height="106" viewBox="0 0 106 106"><defs><style>.a{fill:#fff;stroke:#b366b3;}.b{fill:#f5dff5;}.c{fill:#303030;}.d{stroke:none;}.e{fill:none;}</style></defs><g transform="translate(-1285 -489)"><g class="a" transform="translate(1285 489)"><circle class="d" cx="53" cy="53" r="53"/><circle class="e" cx="53" cy="53" r="52.5"/></g><circle class="b" cx="44" cy="44" r="44" transform="translate(1294 498)"/><g transform="translate(1297.835 524)"><g transform="translate(30.754)"><path class="c" d="M119.892,0a9.1,9.1,0,1,0,9.1,9.1A9.125,9.125,0,0,0,119.892,0Z" transform="translate(-110.791)"/></g><g transform="translate(24.165 18.853)"><g transform="translate(0)"><path class="c" d="M55.473,254.462a8.484,8.484,0,0,0-.914-1.669,11.312,11.312,0,0,0-7.829-4.928,1.675,1.675,0,0,0-1.152.278,9.7,9.7,0,0,1-11.446,0,1.491,1.491,0,0,0-1.152-.278,11.23,11.23,0,0,0-7.829,4.928,9.781,9.781,0,0,0-.914,1.669.845.845,0,0,0,.04.755,15.858,15.858,0,0,0,1.073,1.59,15.1,15.1,0,0,0,1.828,2.066,23.822,23.822,0,0,0,1.828,1.59,18.123,18.123,0,0,0,21.619,0,17.472,17.472,0,0,0,1.828-1.59,18.35,18.35,0,0,0,1.828-2.066,13.936,13.936,0,0,0,1.073-1.59A.678.678,0,0,0,55.473,254.462Z" transform="translate(-24.165 -247.841)"/></g></g></g></g></svg>